<svg width="800" height="147" viewBox="0 0 800 147" fill="none" xmlns="http://www.w3.org/2000/svg">
<rect width="139.037" height="143" fill="#44BDA3"/>
<path d="M0 1.98611C0 0.889213 0.864568 0 1.93107 0H137.106C138.172 0 139.037 0.889212 139.037 1.98611V141.014C139.037 142.111 138.172 143 137.106 143H1.93107C0.864569 143 0 142.111 0 141.014V1.98611Z" fill="#44BDA3"/>
<path d="M81.1627 46.9606C81.1627 47.3733 81.4885 47.7079 81.8904 47.7079H92.0792C92.4811 47.7079 92.807 48.0426 92.807 48.4553V58.6699C92.807 59.0826 93.1328 59.4172 93.5347 59.4172H115.368C115.77 59.4172 116.096 59.7519 116.096 60.1646V106.503C116.096 106.915 115.77 107.25 115.368 107.25H99.3569C98.9549 107.25 98.6291 106.915 98.6291 106.503V87.0706C98.6291 86.6578 98.3033 86.3232 97.9013 86.3232H93.5347C93.1328 86.3232 92.807 86.6578 92.807 87.0706V106.503C92.807 106.915 92.4811 107.25 92.0792 107.25H86.257C85.8551 107.25 85.5293 106.915 85.5293 106.503V93.0497C85.5293 92.6369 85.2034 92.3023 84.8015 92.3023H80.4349C80.033 92.3023 79.7071 92.6369 79.7071 93.0497V106.503C79.7071 106.915 79.3813 107.25 78.9793 107.25H73.1577C72.7557 107.25 72.4299 106.915 72.4299 106.503V99.0287C72.4299 98.616 72.1041 98.2814 71.7021 98.2814H67.3355C66.9336 98.2814 66.6078 98.616 66.6078 99.0287V106.503C66.6078 106.915 66.2819 107.25 65.88 107.25H60.0574C59.6554 107.25 59.3296 106.915 59.3296 106.503V93.0497C59.3296 92.6369 59.0038 92.3023 58.6018 92.3023H54.2352C53.8333 92.3023 53.5074 92.6369 53.5074 93.0497V106.503C53.5074 106.915 53.1816 107.25 52.7797 107.25H46.9575C46.5556 107.25 46.2298 106.915 46.2298 106.503V87.0706C46.2298 86.6578 45.9039 86.3232 45.502 86.3232H41.1354C40.7334 86.3232 40.4076 86.6578 40.4076 87.0706V106.503C40.4076 106.915 40.0818 107.25 39.6798 107.25H23.6689C23.267 107.25 22.9412 106.915 22.9412 106.503V60.1646C22.9412 59.7519 23.267 59.4172 23.6689 59.4172H45.5018C45.9037 59.4172 46.2295 59.0826 46.2295 58.6699V48.4553C46.2295 48.0426 46.5554 47.7079 46.9573 47.7079H57.1461C57.548 47.7079 57.8738 47.3733 57.8738 46.9606V36.4974C57.8738 36.0846 58.1997 35.75 58.6016 35.75H80.4349C80.8368 35.75 81.1627 36.0846 81.1627 36.4974V46.9606Z" fill="black"/>
<path d="M646.185 143.478V40.8779H671.659V54.6779H672.243C677.687 45.2779 687.41 38.0779 701.217 38.0779C713.856 38.0779 723.968 45.2779 728.83 56.0779H729.218C736.024 44.8779 746.525 38.0779 759.165 38.0779C780.166 38.0779 792.028 52.0779 792.028 74.4779V143.478H765.582V79.0779C765.582 67.4779 759.943 61.4779 750.22 61.4779C739.136 61.4779 732.33 70.2779 732.33 83.8779V143.478H705.884V79.0779C705.884 67.4779 700.244 61.4779 690.522 61.4779C679.826 61.4779 672.631 70.2779 672.631 83.8779V143.478H646.185Z" fill="#FCFAF5"/>
<path d="M587.275 146.478C554.218 146.478 535.55 122.678 535.55 92.0779C535.55 61.6779 555.579 38.0779 584.747 38.0779C616.833 38.0779 633.945 63.2779 633.945 99.8779H561.607C563.552 115.678 572.108 125.478 587.081 125.478C597.387 125.478 603.415 120.678 606.332 112.878H632.389C628.695 131.078 612.944 146.478 587.275 146.478ZM585.136 59.0779C571.135 59.0779 564.329 67.6779 561.996 81.0779H606.332C605.554 68.0779 597.193 59.0779 585.136 59.0779Z" fill="#FCFAF5"/>
<path d="M467.605 146.478C442.52 146.478 425.408 125.478 425.408 92.2778C425.408 60.2778 443.104 38.0778 467.994 38.0778C481.995 38.0778 490.746 44.6778 496.191 53.2778H496.774V0.477783H523.22V143.478H497.746V130.078H497.357C491.524 139.878 481.606 146.478 467.605 146.478ZM473.439 123.678C489.19 123.678 497.357 111.678 497.357 92.8778C497.357 73.2778 491.135 60.0778 474.217 60.0778C459.633 60.0778 452.243 73.2778 452.243 92.2778C452.243 112.078 459.827 123.678 473.439 123.678Z" fill="#FCFAF5"/>
<path d="M365.862 146.478C334.943 146.478 313.747 122.878 313.747 92.2779C313.747 61.6779 334.943 38.0779 365.862 38.0779C396.78 38.0779 417.976 61.6779 417.976 92.2779C417.976 122.878 396.78 146.478 365.862 146.478ZM365.862 125.678C382.002 125.678 391.141 112.278 391.141 92.2779C391.141 72.2779 382.002 58.6779 365.862 58.6779C349.527 58.6779 340.582 72.2779 340.582 92.2779C340.582 112.278 349.527 125.678 365.862 125.678Z" fill="#FCFAF5"/>
<path d="M162.372 143.478V0.477783H202.041L221.681 72.2778C226.542 90.2778 230.432 110.878 230.432 110.878H230.82C230.82 110.878 234.515 90.2778 239.377 72.2778L259.017 0.477783H299.269V143.478H273.018V61.4778C273.018 49.8778 274.184 31.8778 274.184 31.8778H273.795C273.795 31.8778 270.684 48.6778 267.767 59.0778L243.849 143.478H216.82L193.485 59.0778C190.568 48.6778 187.457 31.8778 187.457 31.8778H187.068C187.068 31.8778 188.234 49.8778 188.234 61.4778V143.478H162.372Z" fill="#FCFAF5"/>
</svg>
